<?xml version="1.0" encoding="us-ascii" standalone="no"?><svg xmlns="http://www.w3.org/2000/svg" xmlns:xlink="http://www.w3.org/1999/xlink" contentStyleType="text/css" height="128px" preserveAspectRatio="none" style="width:460px;height:128px;background:#FFFFFF;" version="1.1" viewBox="0 0 460 128" width="460px" zoomAndPan="magnify"><defs/><g><rect fill="#FFFFFF" height="31.291" style="stroke:#181818;stroke-width:1.0;" width="10" x="341" y="71.9121"/><line style="stroke:#181818;stroke-width:0.5;stroke-dasharray:5.0,5.0;" x1="116" x2="116" y1="38.6211" y2="121.2031"/><line style="stroke:#181818;stroke-width:0.5;stroke-dasharray:5.0,5.0;" x1="346" x2="346" y1="38.6211" y2="121.2031"/><rect fill="#E2E2F0" height="32.6211" rx="2.5" ry="2.5" style="stroke:#181818;stroke-width:0.5;" width="223" x="5" y="5"/><text fill="#000000" font-family="sans-serif" font-size="14" lengthAdjust="spacing" textLength="209" x="12" y="27.1074">Authorization Decision Consumer</text><rect fill="#E2E2F0" height="32.6211" rx="2.5" ry="2.5" style="stroke:#181818;stroke-width:0.5;" width="216" x="238" y="5"/><text fill="#000000" font-family="sans-serif" font-size="14" lengthAdjust="spacing" textLength="202" x="245" y="27.1074">Authorization Decision Producer</text><rect fill="#FFFFFF" height="31.291" style="stroke:#181818;stroke-width:1.0;" width="10" x="341" y="71.9121"/><polygon fill="#181818" points="329,67.9121,339,71.9121,329,75.9121,333,71.9121" style="stroke:#181818;stroke-width:1.0;"/><line style="stroke:#181818;stroke-width:1.0;" x1="116.5" x2="335" y1="71.9121" y2="71.9121"/><text fill="#000000" font-family="sans-serif" font-size="13" lengthAdjust="spacing" textLength="182" x="123.5" y="66.6494">Authorization Decision Request</text><polygon fill="#181818" points="127.5,99.2031,117.5,103.2031,127.5,107.2031,123.5,103.2031" style="stroke:#181818;stroke-width:1.0;"/><line style="stroke:#181818;stroke-width:1.0;stroke-dasharray:2.0,2.0;" x1="121.5" x2="345" y1="103.2031" y2="103.2031"/><text fill="#000000" font-family="sans-serif" font-size="13" lengthAdjust="spacing" textLength="192" x="133.5" y="97.9404">Authorization Decision Response</text><!--SRC=[ZSun3i8m38NXtQUmklS234WeFK343KnYL0_48NOGulGD4WCBgDiR_azwgsJ6gwfVz0bGgRaagLGSfrFtLPkyo4KBBfp4tYDeiNxZDY4PXbqaDiqzVKW423WVCHxmHtxcUsTpeEJo8ET18iw3X3_4wlZ5aFbBRG00]--></g></svg>