<?xml version="1.0" encoding="us-ascii" standalone="no"?><svg xmlns="http://www.w3.org/2000/svg" xmlns:xlink="http://www.w3.org/1999/xlink" contentStyleType="text/css" height="523px" preserveAspectRatio="none" style="width:440px;height:523px;background:#FFFFFF;" version="1.1" viewBox="0 0 440 523" width="440px" zoomAndPan="magnify"><defs/><g><line style="stroke:#181818;stroke-width:0.5;stroke-dasharray:5.0,5.0;" x1="55" x2="55" y1="38.6211" y2="485.9863"/><line style="stroke:#181818;stroke-width:0.5;stroke-dasharray:5.0,5.0;" x1="366.5" x2="366.5" y1="38.6211" y2="485.9863"/><rect fill="#E2E2F0" height="32.6211" rx="2.5" ry="2.5" style="stroke:#181818;stroke-width:0.5;" width="100" x="5" y="5"/><text fill="#000000" font-family="sans-serif" font-size="14" lengthAdjust="spacing" textLength="86" x="12" y="27.1074">Policy Source</text><rect fill="#E2E2F0" height="32.6211" rx="2.5" ry="2.5" style="stroke:#181818;stroke-width:0.5;" width="100" x="5" y="484.9863"/><text fill="#000000" font-family="sans-serif" font-size="14" lengthAdjust="spacing" textLength="86" x="12" y="507.0938">Policy Source</text><rect fill="#E2E2F0" height="32.6211" rx="2.5" ry="2.5" style="stroke:#181818;stroke-width:0.5;" width="123" x="305.5" y="5"/><text fill="#000000" font-family="sans-serif" font-size="14" lengthAdjust="spacing" textLength="109" x="312.5" y="27.1074">Policy Repository</text><rect fill="#E2E2F0" height="32.6211" rx="2.5" ry="2.5" style="stroke:#181818;stroke-width:0.5;" width="123" x="305.5" y="484.9863"/><text fill="#000000" font-family="sans-serif" font-size="14" lengthAdjust="spacing" textLength="109" x="312.5" y="507.0938">Policy Repository</text><rect fill="#EEEEEE" height="3" style="stroke:#EEEEEE;stroke-width:1.0;" width="433.5" x="0" y="70.2666"/><line style="stroke:#000000;stroke-width:1.0;" x1="0" x2="433.5" y1="70.2666" y2="70.2666"/><line style="stroke:#000000;stroke-width:1.0;" x1="0" x2="433.5" y1="73.2666" y2="73.2666"/><rect fill="#EEEEEE" height="25.291" style="stroke:#000000;stroke-width:2.0;" width="111" x="161.25" y="58.6211"/><text fill="#000000" font-family="sans-serif" font-size="13" font-weight="bold" lengthAdjust="spacing" textLength="93" x="167.25" y="76.6494">Add Policy Set</text><polygon fill="#181818" points="355,130.4941,365,134.4941,355,138.4941,359,134.4941" style="stroke:#181818;stroke-width:1.0;"/><line style="stroke:#181818;stroke-width:1.0;" x1="55" x2="361" y1="134.4941" y2="134.4941"/><text fill="#000000" font-family="sans-serif" font-size="13" lengthAdjust="spacing" textLength="32" x="62" y="111.9404">HTTP</text><text fill="#000000" font-family="sans-serif" font-size="13" font-weight="bold" lengthAdjust="spacing" textLength="36" x="98" y="111.9404">POST</text><text fill="#000000" font-family="sans-serif" font-size="13" lengthAdjust="spacing" textLength="104" x="138" y="111.9404">[baseUrl]/Consent</text><text fill="#000000" font-family="sans-serif" font-size="13" lengthAdjust="spacing" textLength="103" x="62" y="129.2314">Payload: Consent</text><polygon fill="#181818" points="66,179.0762,56,183.0762,66,187.0762,62,183.0762" style="stroke:#181818;stroke-width:1.0;"/><line style="stroke:#181818;stroke-width:1.0;stroke-dasharray:2.0,2.0;" x1="60" x2="366" y1="183.0762" y2="183.0762"/><text fill="#000000" font-family="sans-serif" font-size="13" lengthAdjust="spacing" textLength="89" x="72" y="160.5225">HTTP response</text><text fill="#000000" font-family="sans-serif" font-size="13" lengthAdjust="spacing" textLength="264" x="72" y="177.8135">Payload: none / OperationOutcome / Consent</text><rect fill="#EEEEEE" height="3" style="stroke:#EEEEEE;stroke-width:1.0;" width="433.5" x="0" y="212.7217"/><line style="stroke:#000000;stroke-width:1.0;" x1="0" x2="433.5" y1="212.7217" y2="212.7217"/><line style="stroke:#000000;stroke-width:1.0;" x1="0" x2="433.5" y1="215.7217" y2="215.7217"/><rect fill="#EEEEEE" height="25.291" style="stroke:#000000;stroke-width:2.0;" width="248" x="92.75" y="201.0762"/><text fill="#000000" font-family="sans-serif" font-size="13" font-weight="bold" lengthAdjust="spacing" textLength="230" x="98.75" y="219.1045">Conditionally Add/Update Policy Set</text><polygon fill="#181818" points="355,272.9492,365,276.9492,355,280.9492,359,276.9492" style="stroke:#181818;stroke-width:1.0;"/><line style="stroke:#181818;stroke-width:1.0;" x1="55" x2="361" y1="276.9492" y2="276.9492"/><text fill="#000000" font-family="sans-serif" font-size="13" lengthAdjust="spacing" textLength="32" x="62" y="254.3955">HTTP</text><text fill="#000000" font-family="sans-serif" font-size="13" font-weight="bold" lengthAdjust="spacing" textLength="26" x="98" y="254.3955">PUT</text><text fill="#000000" font-family="sans-serif" font-size="13" lengthAdjust="spacing" textLength="199" x="128" y="254.3955">[baseUrl]/Consent?identifier=[uuid]</text><text fill="#000000" font-family="sans-serif" font-size="13" lengthAdjust="spacing" textLength="103" x="62" y="271.6865">Payload: Consent</text><polygon fill="#181818" points="66,321.5313,56,325.5313,66,329.5313,62,325.5313" style="stroke:#181818;stroke-width:1.0;"/><line style="stroke:#181818;stroke-width:1.0;stroke-dasharray:2.0,2.0;" x1="60" x2="366" y1="325.5313" y2="325.5313"/><text fill="#000000" font-family="sans-serif" font-size="13" lengthAdjust="spacing" textLength="89" x="72" y="302.9775">HTTP response</text><text fill="#000000" font-family="sans-serif" font-size="13" lengthAdjust="spacing" textLength="264" x="72" y="320.2686">Payload: none / OperationOutcome / Consent</text><rect fill="#EEEEEE" height="3" style="stroke:#EEEEEE;stroke-width:1.0;" width="433.5" x="0" y="355.1768"/><line style="stroke:#000000;stroke-width:1.0;" x1="0" x2="433.5" y1="355.1768" y2="355.1768"/><line style="stroke:#000000;stroke-width:1.0;" x1="0" x2="433.5" y1="358.1768" y2="358.1768"/><rect fill="#EEEEEE" height="25.291" style="stroke:#000000;stroke-width:2.0;" width="127" x="153.25" y="343.5313"/><text fill="#000000" font-family="sans-serif" font-size="13" font-weight="bold" lengthAdjust="spacing" textLength="109" x="159.25" y="361.5596">Delete Policy Set</text><polygon fill="#181818" points="355,415.4043,365,419.4043,355,423.4043,359,419.4043" style="stroke:#181818;stroke-width:1.0;"/><line style="stroke:#181818;stroke-width:1.0;" x1="55" x2="361" y1="419.4043" y2="419.4043"/><text fill="#000000" font-family="sans-serif" font-size="13" lengthAdjust="spacing" textLength="32" x="62" y="396.8506">HTTP</text><text fill="#000000" font-family="sans-serif" font-size="13" font-weight="bold" lengthAdjust="spacing" textLength="49" x="98" y="396.8506">DELETE</text><text fill="#000000" font-family="sans-serif" font-size="13" lengthAdjust="spacing" textLength="199" x="151" y="396.8506">[baseUrl]/Consent?identifier=[uuid]</text><text fill="#000000" font-family="sans-serif" font-size="13" lengthAdjust="spacing" textLength="83" x="62" y="414.1416">Payload: none</text><polygon fill="#181818" points="66,463.9863,56,467.9863,66,471.9863,62,467.9863" style="stroke:#181818;stroke-width:1.0;"/><line style="stroke:#181818;stroke-width:1.0;stroke-dasharray:2.0,2.0;" x1="60" x2="366" y1="467.9863" y2="467.9863"/><text fill="#000000" font-family="sans-serif" font-size="13" lengthAdjust="spacing" textLength="89" x="72" y="445.4326">HTTP response</text><text fill="#000000" font-family="sans-serif" font-size="13" lengthAdjust="spacing" textLength="204" x="72" y="462.7236">Payload: none / OperationOutcome</text><!--SRC=[jO_1QiCm38RlVWhHUyczr1bZ3VGmI5YJKzU34giWy2nZEuUy_U8sXHrMA1sx24d-zV7POqWyi4UNODM8vM62WunXe1LWN5hbVqbza9V8IS9qIUPHAQtXrHYuWIY1rkeAWNLv2MrWtxODRFkogG_jjkXBEFOOgGlsLBo9Y-JIfsjmie9c0yj6vLDOpumhRQ44YZu7VXmuSGG5r9u29XPNZscGhxoweRBbt1lEpsZjb9sBpXjCzAXwTyVyXSrS-SmKz74SsPp-_oyxilIm-Qvwhzhg2VdiycTpfRu1]--></g></svg>