<?xml version="1.0" encoding="UTF-8" standalone="no"?><svg xmlns="http://www.w3.org/2000/svg" xmlns:xlink="http://www.w3.org/1999/xlink" contentScriptType="application/ecmascript" contentStyleType="text/css" height="413px" preserveAspectRatio="none" style="width:485px;height:413px;background:#FFFFFF;" version="1.1" viewBox="0 0 485 413" width="485px" zoomAndPan="magnify"><defs><filter height="300%" id="f2rdljl2jmlvo" width="300%" x="-1" y="-1"><feGaussianBlur result="blurOut" stdDeviation="2.0"/><feColorMatrix in="blurOut" result="blurOut2" type="matrix" values="0 0 0 0 0 0 0 0 0 0 0 0 0 0 0 0 0 0 .4 0"/><feOffset dx="4.0" dy="4.0" in="blurOut2" result="blurOut3"/><feBlend in="SourceGraphic" in2="blurOut3" mode="normal"/></filter></defs><g><rect fill="#DDDDDD" height="394.125" style="stroke:#A80036;stroke-width:1.0;" width="296" x="183" y="6"/><text fill="#000000" font-family="sans-serif" font-size="13" font-weight="bold" lengthAdjust="spacing" textLength="97" x="282.5" y="19.4951">IPF Application</text><rect fill="#FFFFFF" filter="url(#f2rdljl2jmlvo)" height="30.3516" style="stroke:#A80036;stroke-width:1.0;" width="10" x="236" y="120.6641"/><rect fill="#FFFFFF" filter="url(#f2rdljl2jmlvo)" height="174.7578" style="stroke:#A80036;stroke-width:1.0;" width="10" x="236" y="213.3672"/><rect fill="#FFFFFF" filter="url(#f2rdljl2jmlvo)" height="70.7031" style="stroke:#A80036;stroke-width:1.0;" width="10" x="397" y="287.0703"/><rect fill="#FFFFFF" filter="url(#f2rdljl2jmlvo)" height="79.0547" style="stroke:#000000;stroke-width:2.0;" width="295" x="10" y="79.9609"/><line style="stroke:#A80036;stroke-width:1.0;stroke-dasharray:5.0,5.0;" x1="47" x2="47" y1="62.9609" y2="406.125"/><line style="stroke:#A80036;stroke-width:1.0;stroke-dasharray:5.0,5.0;" x1="241" x2="241" y1="62.9609" y2="406.125"/><line style="stroke:#A80036;stroke-width:1.0;stroke-dasharray:5.0,5.0;" x1="402" x2="402" y1="62.9609" y2="406.125"/><rect fill="#FEFECE" filter="url(#f2rdljl2jmlvo)" height="31.6094" style="stroke:#A80036;stroke-width:1.5;" width="50" x="20" y="26.3516"/><text fill="#000000" font-family="sans-serif" font-size="14" lengthAdjust="spacing" textLength="36" x="27" y="47.8848">Client</text><rect fill="#FEFECE" filter="url(#f2rdljl2jmlvo)" height="31.6094" style="stroke:#A80036;stroke-width:1.5;" width="104" x="187" y="26.3516"/><text fill="#000000" font-family="sans-serif" font-size="14" lengthAdjust="spacing" textLength="90" x="194" y="47.8848">IPF Consumer</text><rect fill="#FEFECE" filter="url(#f2rdljl2jmlvo)" height="31.6094" style="stroke:#A80036;stroke-width:1.5;" width="142" x="329" y="26.3516"/><text fill="#000000" font-family="sans-serif" font-size="14" lengthAdjust="spacing" textLength="128" x="336" y="47.8848">Server Camel Route</text><rect fill="#FFFFFF" filter="url(#f2rdljl2jmlvo)" height="30.3516" style="stroke:#A80036;stroke-width:1.0;" width="10" x="236" y="120.6641"/><rect fill="#FFFFFF" filter="url(#f2rdljl2jmlvo)" height="174.7578" style="stroke:#A80036;stroke-width:1.0;" width="10" x="236" y="213.3672"/><rect fill="#FFFFFF" filter="url(#f2rdljl2jmlvo)" height="70.7031" style="stroke:#A80036;stroke-width:1.0;" width="10" x="397" y="287.0703"/><path d="M10,79.9609 L83,79.9609 L83,87.9609 L73,97.9609 L10,97.9609 L10,79.9609 " fill="#EEEEEE" style="stroke:#000000;stroke-width:1.0;"/><rect fill="none" height="79.0547" style="stroke:#000000;stroke-width:2.0;" width="295" x="10" y="79.9609"/><text fill="#000000" font-family="sans-serif" font-size="13" font-weight="bold" lengthAdjust="spacing" textLength="28" x="25" y="94.4561">loop</text><text fill="#000000" font-family="sans-serif" font-size="11" font-weight="bold" lengthAdjust="spacing" textLength="60" x="98" y="93.3799">[n-1 times]</text><polygon fill="#A80036" points="224,116.6641,234,120.6641,224,124.6641,228,120.6641" style="stroke:#A80036;stroke-width:1.0;"/><line style="stroke:#A80036;stroke-width:1.0;" x1="47" x2="230" y1="120.6641" y2="120.6641"/><text fill="#000000" font-family="sans-serif" font-size="13" lengthAdjust="spacing" textLength="121" x="54" y="115.8076">Fragment of Request</text><polygon fill="#A80036" points="58,147.0156,48,151.0156,58,155.0156,54,151.0156" style="stroke:#A80036;stroke-width:1.0;"/><line style="stroke:#A80036;stroke-width:1.0;stroke-dasharray:2.0,2.0;" x1="52" x2="240" y1="151.0156" y2="151.0156"/><text fill="#000000" font-family="sans-serif" font-size="13" lengthAdjust="spacing" textLength="165" x="64" y="146.1592">Fragment Acknowledgement</text><polygon fill="#A80036" points="224,209.3672,234,213.3672,224,217.3672,228,213.3672" style="stroke:#A80036;stroke-width:1.0;"/><line style="stroke:#A80036;stroke-width:1.0;" x1="47" x2="230" y1="213.3672" y2="213.3672"/><text fill="#000000" font-family="sans-serif" font-size="13" lengthAdjust="spacing" textLength="150" x="54" y="208.5107">Last Fragment of Request</text><line style="stroke:#A80036;stroke-width:1.0;" x1="246" x2="288" y1="243.7188" y2="243.7188"/><line style="stroke:#A80036;stroke-width:1.0;" x1="288" x2="288" y1="243.7188" y2="256.7188"/><line style="stroke:#A80036;stroke-width:1.0;" x1="247" x2="288" y1="256.7188" y2="256.7188"/><polygon fill="#A80036" points="257,252.7188,247,256.7188,257,260.7188,253,256.7188" style="stroke:#A80036;stroke-width:1.0;"/><text fill="#000000" font-family="sans-serif" font-size="13" lengthAdjust="spacing" textLength="84" x="253" y="238.8623">Join fragments</text><polygon fill="#A80036" points="385,283.0703,395,287.0703,385,291.0703,389,287.0703" style="stroke:#A80036;stroke-width:1.0;"/><line style="stroke:#A80036;stroke-width:1.0;" x1="246" x2="391" y1="287.0703" y2="287.0703"/><text fill="#000000" font-family="sans-serif" font-size="13" lengthAdjust="spacing" textLength="132" x="253" y="282.2139">Unfragmented Request</text><path d="M412,300.0703 L412,326.0703 L470,326.0703 L470,310.0703 L460,300.0703 L412,300.0703 " fill="#FBFB77" filter="url(#f2rdljl2jmlvo)" style="stroke:#A80036;stroke-width:1.0;"/><path d="M460,300.0703 L460,310.0703 L470,310.0703 L460,300.0703 " fill="#FBFB77" style="stroke:#A80036;stroke-width:1.0;"/><text fill="#000000" font-family="sans-serif" font-size="13" lengthAdjust="spacing" textLength="37" x="418" y="318.5654">.from()</text><polygon fill="#A80036" points="257,353.7734,247,357.7734,257,361.7734,253,357.7734" style="stroke:#A80036;stroke-width:1.0;"/><line style="stroke:#A80036;stroke-width:1.0;stroke-dasharray:2.0,2.0;" x1="251" x2="401" y1="357.7734" y2="357.7734"/><text fill="#000000" font-family="sans-serif" font-size="13" lengthAdjust="spacing" textLength="58" x="263" y="352.917">Response</text><polygon fill="#A80036" points="58,384.125,48,388.125,58,392.125,54,388.125" style="stroke:#A80036;stroke-width:1.0;"/><line style="stroke:#A80036;stroke-width:1.0;" x1="52" x2="240" y1="388.125" y2="388.125"/><text fill="#000000" font-family="sans-serif" font-size="13" lengthAdjust="spacing" textLength="58" x="64" y="383.2686">Response</text><!--MD5=[5376b0f061682a4047c2d3442d0a3100]
@startuml
hide footbox

participant "Client"
box "IPF Application"
participant "IPF Consumer" as CON
participant "Server Camel Route" as SCR
end box

loop n-1 times
    Client -> CON : Fragment of Request
    activate CON
    CON - -> Client : Fragment Acknowledgement
    deactivate CON
end
|||

Client -> CON : Last Fragment of Request
activate CON
CON -> CON: Join fragments
CON -> SCR: Unfragmented Request
activate SCR
note right of SCR: .from()
SCR - -> CON: Response
deactivate SCR
CON -> Client: Response
deactivate CON

@enduml

PlantUML version 1.2022.1(Tue Feb 01 19:19:58 CET 2022)
(GPL source distribution)
Java Runtime: OpenJDK Runtime Environment
JVM: OpenJDK 64-Bit Server VM
Default Encoding: Cp1252
Language: de
Country: CH
--></g></svg>