<?xml version="1.0" encoding="UTF-8" standalone="no"?><svg xmlns="http://www.w3.org/2000/svg" xmlns:xlink="http://www.w3.org/1999/xlink" contentScriptType="application/ecmascript" contentStyleType="text/css" height="369px" preserveAspectRatio="none" style="width:484px;height:369px;background:#FFFFFF;" version="1.1" viewBox="0 0 484 369" width="484px" zoomAndPan="magnify"><defs><filter height="300%" id="f1pokju2liphql" width="300%" x="-1" y="-1"><feGaussianBlur result="blurOut" stdDeviation="2.0"/><feColorMatrix in="blurOut" result="blurOut2" type="matrix" values="0 0 0 0 0 0 0 0 0 0 0 0 0 0 0 0 0 0 .4 0"/><feOffset dx="4.0" dy="4.0" in="blurOut2" result="blurOut3"/><feBlend in="SourceGraphic" in2="blurOut3" mode="normal"/></filter></defs><g><rect fill="#DDDDDD" height="350.7734" style="stroke:#A80036;stroke-width:1.0;" width="284.5" x="1" y="6"/><text fill="#000000" font-family="sans-serif" font-size="13" font-weight="bold" lengthAdjust="spacing" textLength="97" x="94.75" y="19.4951">IPF Application</text><rect fill="#FFFFFF" filter="url(#f1pokju2liphql)" height="249.4609" style="stroke:#A80036;stroke-width:1.0;" width="10" x="226" y="95.3125"/><rect fill="#FFFFFF" filter="url(#f1pokju2liphql)" height="30.3516" style="stroke:#A80036;stroke-width:1.0;" width="10" x="425" y="191.3672"/><rect fill="#FFFFFF" filter="url(#f1pokju2liphql)" height="30.3516" style="stroke:#A80036;stroke-width:1.0;" width="10" x="425" y="284.0703"/><rect fill="#FFFFFF" filter="url(#f1pokju2liphql)" height="79.0547" style="stroke:#000000;stroke-width:2.0;" width="299.5" x="170.5" y="150.6641"/><line style="stroke:#A80036;stroke-width:1.0;stroke-dasharray:5.0,5.0;" x1="75" x2="75" y1="62.9609" y2="362.7734"/><line style="stroke:#A80036;stroke-width:1.0;stroke-dasharray:5.0,5.0;" x1="230.5" x2="230.5" y1="62.9609" y2="362.7734"/><line style="stroke:#A80036;stroke-width:1.0;stroke-dasharray:5.0,5.0;" x1="430" x2="430" y1="62.9609" y2="362.7734"/><rect fill="#FEFECE" filter="url(#f1pokju2liphql)" height="31.6094" style="stroke:#A80036;stroke-width:1.5;" width="136" x="5" y="26.3516"/><text fill="#000000" font-family="sans-serif" font-size="14" lengthAdjust="spacing" textLength="122" x="12" y="47.8848">Client Camel Route</text><rect fill="#FEFECE" filter="url(#f1pokju2liphql)" height="31.6094" style="stroke:#A80036;stroke-width:1.5;" width="97" x="180.5" y="26.3516"/><text fill="#000000" font-family="sans-serif" font-size="14" lengthAdjust="spacing" textLength="83" x="187.5" y="47.8848">IPF Producer</text><rect fill="#FEFECE" filter="url(#f1pokju2liphql)" height="31.6094" style="stroke:#A80036;stroke-width:1.5;" width="56" x="400" y="26.3516"/><text fill="#000000" font-family="sans-serif" font-size="14" lengthAdjust="spacing" textLength="42" x="407" y="47.8848">Server</text><rect fill="#FFFFFF" filter="url(#f1pokju2liphql)" height="249.4609" style="stroke:#A80036;stroke-width:1.0;" width="10" x="226" y="95.3125"/><rect fill="#FFFFFF" filter="url(#f1pokju2liphql)" height="30.3516" style="stroke:#A80036;stroke-width:1.0;" width="10" x="425" y="191.3672"/><rect fill="#FFFFFF" filter="url(#f1pokju2liphql)" height="30.3516" style="stroke:#A80036;stroke-width:1.0;" width="10" x="425" y="284.0703"/><polygon fill="#A80036" points="214,91.3125,224,95.3125,214,99.3125,218,95.3125" style="stroke:#A80036;stroke-width:1.0;"/><line style="stroke:#A80036;stroke-width:1.0;" x1="75" x2="220" y1="95.3125" y2="95.3125"/><text fill="#000000" font-family="sans-serif" font-size="13" lengthAdjust="spacing" textLength="132" x="82" y="90.4561">Unfragmented Request</text><path d="M10,108.3125 L10,134.3125 L66,134.3125 L66,118.3125 L56,108.3125 L10,108.3125 " fill="#FBFB77" filter="url(#f1pokju2liphql)" style="stroke:#A80036;stroke-width:1.0;"/><path d="M56,108.3125 L56,118.3125 L66,118.3125 L56,108.3125 " fill="#FBFB77" style="stroke:#A80036;stroke-width:1.0;"/><text fill="#000000" font-family="sans-serif" font-size="13" lengthAdjust="spacing" textLength="35" x="16" y="126.8076">.to(...)</text><path d="M170.5,150.6641 L243.5,150.6641 L243.5,158.6641 L233.5,168.6641 L170.5,168.6641 L170.5,150.6641 " fill="#EEEEEE" style="stroke:#000000;stroke-width:1.0;"/><rect fill="none" height="79.0547" style="stroke:#000000;stroke-width:2.0;" width="299.5" x="170.5" y="150.6641"/><text fill="#000000" font-family="sans-serif" font-size="13" font-weight="bold" lengthAdjust="spacing" textLength="28" x="185.5" y="165.1592">loop</text><text fill="#000000" font-family="sans-serif" font-size="11" font-weight="bold" lengthAdjust="spacing" textLength="60" x="258.5" y="164.083">[n-1 times]</text><polygon fill="#A80036" points="413,187.3672,423,191.3672,413,195.3672,417,191.3672" style="stroke:#A80036;stroke-width:1.0;"/><line style="stroke:#A80036;stroke-width:1.0;" x1="236" x2="419" y1="191.3672" y2="191.3672"/><text fill="#000000" font-family="sans-serif" font-size="13" lengthAdjust="spacing" textLength="121" x="243" y="186.5107">Fragment of Request</text><polygon fill="#A80036" points="247,217.7188,237,221.7188,247,225.7188,243,221.7188" style="stroke:#A80036;stroke-width:1.0;"/><line style="stroke:#A80036;stroke-width:1.0;stroke-dasharray:2.0,2.0;" x1="241" x2="429" y1="221.7188" y2="221.7188"/><text fill="#000000" font-family="sans-serif" font-size="13" lengthAdjust="spacing" textLength="165" x="253" y="216.8623">Fragment Acknowledgement</text><polygon fill="#A80036" points="413,280.0703,423,284.0703,413,288.0703,417,284.0703" style="stroke:#A80036;stroke-width:1.0;"/><line style="stroke:#A80036;stroke-width:1.0;" x1="236" x2="419" y1="284.0703" y2="284.0703"/><text fill="#000000" font-family="sans-serif" font-size="13" lengthAdjust="spacing" textLength="150" x="243" y="279.2139">Last Fragment of Request</text><polygon fill="#A80036" points="247,310.4219,237,314.4219,247,318.4219,243,314.4219" style="stroke:#A80036;stroke-width:1.0;"/><line style="stroke:#A80036;stroke-width:1.0;stroke-dasharray:2.0,2.0;" x1="241" x2="429" y1="314.4219" y2="314.4219"/><text fill="#000000" font-family="sans-serif" font-size="13" lengthAdjust="spacing" textLength="58" x="253" y="309.5654">Response</text><polygon fill="#A80036" points="86,340.7734,76,344.7734,86,348.7734,82,344.7734" style="stroke:#A80036;stroke-width:1.0;"/><line style="stroke:#A80036;stroke-width:1.0;stroke-dasharray:2.0,2.0;" x1="80" x2="230" y1="344.7734" y2="344.7734"/><text fill="#000000" font-family="sans-serif" font-size="13" lengthAdjust="spacing" textLength="58" x="92" y="339.917">Response</text><!--MD5=[2d57b5d2a66cbcca5223ab302eb1b6ef]
@startuml
hide footbox


box "IPF Application"
participant "Client Camel Route" as Client
participant "IPF Producer" as PRO
end box
participant Server

Client -> PRO: Unfragmented Request
note left of Client: .to(...)
activate PRO
loop n-1 times
    PRO -> Server : Fragment of Request
    activate Server
    Server - -> PRO : Fragment Acknowledgement
    deactivate Server
end
|||

PRO -> Server : Last Fragment of Request
activate Server
Server - -> PRO: Response
deactivate Server

PRO - -> Client : Response
deactivate PRO

@enduml

PlantUML version 1.2022.1(Tue Feb 01 19:19:58 CET 2022)
(GPL source distribution)
Java Runtime: OpenJDK Runtime Environment
JVM: OpenJDK 64-Bit Server VM
Default Encoding: Cp1252
Language: de
Country: CH
--></g></svg>