<?xml version="1.0" encoding="UTF-8" standalone="no"?><svg xmlns="http://www.w3.org/2000/svg" xmlns:xlink="http://www.w3.org/1999/xlink" contentScriptType="application/ecmascript" contentStyleType="text/css" height="396px" preserveAspectRatio="none" style="width:551px;height:396px;background:#FFFFFF;" version="1.1" viewBox="0 0 551 396" width="551px" zoomAndPan="magnify"><defs><filter height="300%" id="fynp7fin1y5bv" width="300%" x="-1" y="-1"><feGaussianBlur result="blurOut" stdDeviation="2.0"/><feColorMatrix in="blurOut" result="blurOut2" type="matrix" values="0 0 0 0 0 0 0 0 0 0 0 0 0 0 0 0 0 0 .4 0"/><feOffset dx="4.0" dy="4.0" in="blurOut2" result="blurOut3"/><feBlend in="SourceGraphic" in2="blurOut3" mode="normal"/></filter></defs><g><rect fill="#DDDDDD" height="377.125" style="stroke:#A80036;stroke-width:1.0;" width="384" x="161" y="6"/><text fill="#000000" font-family="sans-serif" font-size="13" font-weight="bold" lengthAdjust="spacing" textLength="97" x="304.5" y="19.4951">IPF Application</text><rect fill="#FFFFFF" filter="url(#fynp7fin1y5bv)" height="275.8125" style="stroke:#A80036;stroke-width:1.0;" width="10" x="214" y="95.3125"/><rect fill="#FFFFFF" filter="url(#fynp7fin1y5bv)" height="70.7031" style="stroke:#A80036;stroke-width:1.0;" width="10" x="463" y="125.6641"/><line style="stroke:#A80036;stroke-width:1.0;stroke-dasharray:5.0,5.0;" x1="32" x2="32" y1="62.9609" y2="389.125"/><line style="stroke:#A80036;stroke-width:1.0;stroke-dasharray:5.0,5.0;" x1="219" x2="219" y1="62.9609" y2="389.125"/><line style="stroke:#A80036;stroke-width:1.0;stroke-dasharray:5.0,5.0;" x1="468" x2="468" y1="62.9609" y2="389.125"/><rect fill="#FEFECE" filter="url(#fynp7fin1y5bv)" height="31.6094" style="stroke:#A80036;stroke-width:1.5;" width="50" x="5" y="26.3516"/><text fill="#000000" font-family="sans-serif" font-size="14" lengthAdjust="spacing" textLength="36" x="12" y="47.8848">Client</text><rect fill="#FEFECE" filter="url(#fynp7fin1y5bv)" height="31.6094" style="stroke:#A80036;stroke-width:1.5;" width="104" x="165" y="26.3516"/><text fill="#000000" font-family="sans-serif" font-size="14" lengthAdjust="spacing" textLength="90" x="172" y="47.8848">IPF Consumer</text><rect fill="#FEFECE" filter="url(#fynp7fin1y5bv)" height="31.6094" style="stroke:#A80036;stroke-width:1.5;" width="142" x="395" y="26.3516"/><text fill="#000000" font-family="sans-serif" font-size="14" lengthAdjust="spacing" textLength="128" x="402" y="47.8848">Server Camel Route</text><rect fill="#FFFFFF" filter="url(#fynp7fin1y5bv)" height="275.8125" style="stroke:#A80036;stroke-width:1.0;" width="10" x="214" y="95.3125"/><rect fill="#FFFFFF" filter="url(#fynp7fin1y5bv)" height="70.7031" style="stroke:#A80036;stroke-width:1.0;" width="10" x="463" y="125.6641"/><polygon fill="#A80036" points="202,91.3125,212,95.3125,202,99.3125,206,95.3125" style="stroke:#A80036;stroke-width:1.0;"/><line style="stroke:#A80036;stroke-width:1.0;" x1="32" x2="208" y1="95.3125" y2="95.3125"/><text fill="#000000" font-family="sans-serif" font-size="13" lengthAdjust="spacing" textLength="163" x="39" y="90.4561">Request with Sorting control</text><polygon fill="#A80036" points="451,121.6641,461,125.6641,451,129.6641,455,125.6641" style="stroke:#A80036;stroke-width:1.0;"/><line style="stroke:#A80036;stroke-width:1.0;" x1="224" x2="457" y1="125.6641" y2="125.6641"/><text fill="#000000" font-family="sans-serif" font-size="13" lengthAdjust="spacing" textLength="48" x="231" y="120.8076">Request</text><path d="M478,138.6641 L478,164.6641 L536,164.6641 L536,148.6641 L526,138.6641 L478,138.6641 " fill="#FBFB77" filter="url(#fynp7fin1y5bv)" style="stroke:#A80036;stroke-width:1.0;"/><path d="M526,138.6641 L526,148.6641 L536,148.6641 L526,138.6641 " fill="#FBFB77" style="stroke:#A80036;stroke-width:1.0;"/><text fill="#000000" font-family="sans-serif" font-size="13" lengthAdjust="spacing" textLength="37" x="484" y="157.1592">.from()</text><polygon fill="#A80036" points="235,192.3672,225,196.3672,235,200.3672,231,196.3672" style="stroke:#A80036;stroke-width:1.0;"/><line style="stroke:#A80036;stroke-width:1.0;stroke-dasharray:2.0,2.0;" x1="229" x2="467" y1="196.3672" y2="196.3672"/><text fill="#000000" font-family="sans-serif" font-size="13" lengthAdjust="spacing" textLength="58" x="241" y="191.5107">Response</text><line style="stroke:#A80036;stroke-width:1.0;" x1="224" x2="266" y1="268.0703" y2="268.0703"/><line style="stroke:#A80036;stroke-width:1.0;" x1="266" x2="266" y1="268.0703" y2="281.0703"/><line style="stroke:#A80036;stroke-width:1.0;" x1="225" x2="266" y1="281.0703" y2="281.0703"/><line style="stroke:#A80036;stroke-width:1.0;" x1="225" x2="235" y1="281.0703" y2="277.0703"/><line style="stroke:#A80036;stroke-width:1.0;" x1="225" x2="235" y1="281.0703" y2="285.0703"/><text fill="#000000" font-family="sans-serif" font-size="13" lengthAdjust="spacing" textLength="206" x="231" y="246.8623">Sort values of the specified attribute</text><text fill="#000000" font-family="sans-serif" font-size="13" lengthAdjust="spacing" textLength="154" x="231" y="263.2139">in each search result entry</text><line style="stroke:#A80036;stroke-width:1.0;" x1="224" x2="266" y1="327.7734" y2="327.7734"/><line style="stroke:#A80036;stroke-width:1.0;" x1="266" x2="266" y1="327.7734" y2="340.7734"/><line style="stroke:#A80036;stroke-width:1.0;" x1="225" x2="266" y1="340.7734" y2="340.7734"/><line style="stroke:#A80036;stroke-width:1.0;" x1="225" x2="235" y1="340.7734" y2="336.7734"/><line style="stroke:#A80036;stroke-width:1.0;" x1="225" x2="235" y1="340.7734" y2="344.7734"/><text fill="#000000" font-family="sans-serif" font-size="13" lengthAdjust="spacing" textLength="203" x="231" y="306.5654">Sort search result entries based on</text><text fill="#000000" font-family="sans-serif" font-size="13" lengthAdjust="spacing" textLength="225" x="231" y="322.917">the first values of the specified attribute</text><polygon fill="#A80036" points="43,367.125,33,371.125,43,375.125,39,371.125" style="stroke:#A80036;stroke-width:1.0;"/><line style="stroke:#A80036;stroke-width:1.0;stroke-dasharray:2.0,2.0;" x1="37" x2="218" y1="371.125" y2="371.125"/><text fill="#000000" font-family="sans-serif" font-size="13" lengthAdjust="spacing" textLength="58" x="49" y="366.2686">Response</text><!--MD5=[9ba4c5af8c375429eb01b71b8ba9e355]
@startuml
hide footbox

participant "Client"
box "IPF Application"
participant "IPF Consumer" as CON
participant "Server Camel Route" as SCR
end box

Client -> CON : Request with Sorting control
activate CON
CON -> SCR : Request
activate SCR
note right of SCR: .from()
SCR - -> CON : Response
deactivate SCR

|||

CON ->> CON: Sort values of the specified attribute\nin each search result entry
CON ->> CON: Sort search result entries based on \nthe first values of the specified attribute

CON - -> Client : Response

deactivate CON

@enduml

PlantUML version 1.2022.1(Tue Feb 01 19:19:58 CET 2022)
(GPL source distribution)
Java Runtime: OpenJDK Runtime Environment
JVM: OpenJDK 64-Bit Server VM
Default Encoding: Cp1252
Language: de
Country: CH
--></g></svg>