<svg xmlns="http://www.w3.org/2000/svg" xmlns:xlink="http://www.w3.org/1999/xlink" contentStyleType="text/css" height="121px" preserveAspectRatio="none" style="width:499px;height:121px;background:#FFFFFF;" version="1.1" viewBox="0 0 499 121" width="499px" zoomAndPan="magnify"><defs/><g><rect fill="#FFFFFF" height="29.1328" style="stroke:#181818;stroke-width:1.0;" width="10" x="372.9805" y="67.4297"/><line style="stroke:#181818;stroke-width:0.5;stroke-dasharray:5.0,5.0;" x1="127" x2="127" y1="36.2969" y2="114.5625"/><line style="stroke:#181818;stroke-width:0.5;stroke-dasharray:5.0,5.0;" x1="377.272" x2="377.272" y1="36.2969" y2="114.5625"/><rect fill="#E2E2F0" height="30.2969" rx="2.5" ry="2.5" style="stroke:#181818;stroke-width:0.5;" width="245.123" x="5" y="5"/><text fill="#000000" font-family="sans-serif" font-size="14" lengthAdjust="spacing" textLength="231.123" x="12" y="24.9951">Patient Demographics Consumer</text><rect fill="#E2E2F0" height="30.2969" rx="2.5" ry="2.5" style="stroke:#181818;stroke-width:0.5;" width="231.417" x="262.272" y="5"/><text fill="#000000" font-family="sans-serif" font-size="14" lengthAdjust="spacing" textLength="217.417" x="269.272" y="24.9951">Patient Demographics Supplier</text><rect fill="#FFFFFF" height="29.1328" style="stroke:#181818;stroke-width:1.0;" width="10" x="372.9805" y="67.4297"/><polygon fill="#181818" points="360.9805,63.4297,370.9805,67.4297,360.9805,71.4297,364.9805,67.4297" style="stroke:#181818;stroke-width:1.0;"/><line style="stroke:#181818;stroke-width:1.0;" x1="127.5615" x2="366.9805" y1="67.4297" y2="67.4297"/><text fill="#000000" font-family="sans-serif" font-size="13" lengthAdjust="spacing" textLength="154.2671" x="134.5615" y="62.3638">Match Patient Resource</text><polygon fill="#181818" points="138.5615,92.5625,128.5615,96.5625,138.5615,100.5625,134.5615,96.5625" style="stroke:#181818;stroke-width:1.0;"/><line style="stroke:#181818;stroke-width:1.0;" x1="132.5615" x2="376.9805" y1="96.5625" y2="96.5625"/><text fill="#000000" font-family="sans-serif" font-size="13" lengthAdjust="spacing" textLength="221.4189" x="144.5615" y="91.4966">Match Patient Resource Response</text><!--SRC=[ZSun2iCm38NXNQSGsNE13btQDL3i4wYEMWkQIDXooV7hG0jT2jtUy7_miioCDrM_wWPWL5oI6AsEmuLSk8ypBtelP5bInPEkjIrS1gIAyGyGczb3tY00H1oF6F204tdA-361gxQI62YvFCcvjs5Fuyzq7zRlCCpyfU05]--></g></svg>