<svg xmlns="http://www.w3.org/2000/svg" xmlns:xlink="http://www.w3.org/1999/xlink" contentStyleType="text/css" height="303px" preserveAspectRatio="none" style="width:679px;height:303px;background:#FFFFFF;" version="1.1" viewBox="0 0 679 303" width="679px" zoomAndPan="magnify"><defs/><g><rect fill="#FFFFFF" height="31.291" style="stroke:#181818;stroke-width:1.0;" width="10" x="565.4497" y="71.9121"/><rect fill="#FFFFFF" height="31.291" style="stroke:#181818;stroke-width:1.0;" width="10" x="565.4497" y="159.4941"/><rect fill="#FFFFFF" height="31.291" style="stroke:#181818;stroke-width:1.0;" width="10" x="565.4497" y="247.0762"/><line style="stroke:#181818;stroke-width:0.5;stroke-dasharray:5.0,5.0;" x1="115" x2="115" y1="38.6211" y2="296.3672"/><line style="stroke:#181818;stroke-width:0.5;stroke-dasharray:5.0,5.0;" x1="569.9536" x2="569.9536" y1="38.6211" y2="296.3672"/><rect fill="#E2E2F0" height="32.6211" rx="2.5" ry="2.5" style="stroke:#181818;stroke-width:0.5;" width="220.2061" x="5" y="5"/><text fill="#000000" font-family="sans-serif" font-size="14" lengthAdjust="spacing" textLength="206.2061" x="12" y="27.1074">Patient Demographics Consumer</text><rect fill="#E2E2F0" height="32.6211" rx="2.5" ry="2.5" style="stroke:#181818;stroke-width:0.5;" width="206.9922" x="466.9536" y="5"/><text fill="#000000" font-family="sans-serif" font-size="14" lengthAdjust="spacing" textLength="192.9922" x="473.9536" y="27.1074">Patient Demographics Supplier</text><rect fill="#FFFFFF" height="31.291" style="stroke:#181818;stroke-width:1.0;" width="10" x="565.4497" y="71.9121"/><rect fill="#FFFFFF" height="31.291" style="stroke:#181818;stroke-width:1.0;" width="10" x="565.4497" y="159.4941"/><rect fill="#FFFFFF" height="31.291" style="stroke:#181818;stroke-width:1.0;" width="10" x="565.4497" y="247.0762"/><polygon fill="#181818" points="553.4497,67.9121,563.4497,71.9121,553.4497,75.9121,557.4497,71.9121" style="stroke:#181818;stroke-width:1.0;"/><line style="stroke:#181818;stroke-width:1.0;" x1="115.103" x2="559.4497" y1="71.9121" y2="71.9121"/><text fill="#000000" font-family="sans-serif" font-size="13" lengthAdjust="spacing" textLength="364.1968" x="122.103" y="66.6494">Patient Registry Find Candidates Query PRPA_IN201305UV02</text><polygon fill="#181818" points="126.103,99.2031,116.103,103.2031,126.103,107.2031,122.103,103.2031" style="stroke:#181818;stroke-width:1.0;"/><line style="stroke:#181818;stroke-width:1.0;stroke-dasharray:2.0,2.0;" x1="120.103" x2="569.4497" y1="103.2031" y2="103.2031"/><text fill="#000000" font-family="sans-serif" font-size="13" lengthAdjust="spacing" textLength="426.3467" x="132.103" y="97.9404">Patient Registry Find Candidates Query Response PRPA_IN201306UV02</text><polygon fill="#181818" points="553.4497,155.4941,563.4497,159.4941,553.4497,163.4941,557.4497,159.4941" style="stroke:#181818;stroke-width:1.0;"/><line style="stroke:#181818;stroke-width:1.0;" x1="115.103" x2="559.4497" y1="159.4941" y2="159.4941"/><text fill="#000000" font-family="sans-serif" font-size="13" lengthAdjust="spacing" textLength="362.7432" x="122.103" y="154.2314">General Query Activate Query Continue QUQI_IN000003UV01</text><polygon fill="#181818" points="126.103,186.7852,116.103,190.7852,126.103,194.7852,122.103,190.7852" style="stroke:#181818;stroke-width:1.0;"/><line style="stroke:#181818;stroke-width:1.0;stroke-dasharray:2.0,2.0;" x1="120.103" x2="569.4497" y1="190.7852" y2="190.7852"/><text fill="#000000" font-family="sans-serif" font-size="13" lengthAdjust="spacing" textLength="426.3467" x="132.103" y="185.5225">Patient Registry Find Candidates Query Response PRPA_IN201306UV02</text><polygon fill="#181818" points="553.4497,243.0762,563.4497,247.0762,553.4497,251.0762,557.4497,247.0762" style="stroke:#181818;stroke-width:1.0;"/><line style="stroke:#181818;stroke-width:1.0;" x1="115.103" x2="559.4497" y1="247.0762" y2="247.0762"/><text fill="#000000" font-family="sans-serif" font-size="13" lengthAdjust="spacing" textLength="297.7368" x="122.103" y="241.8135">Cancel Continuation QUQI_IN000003UV01_Cancel</text><polygon fill="#181818" points="126.103,274.3672,116.103,278.3672,126.103,282.3672,122.103,278.3672" style="stroke:#181818;stroke-width:1.0;"/><line style="stroke:#181818;stroke-width:1.0;stroke-dasharray:2.0,2.0;" x1="120.103" x2="569.4497" y1="278.3672" y2="278.3672"/><text fill="#000000" font-family="sans-serif" font-size="13" lengthAdjust="spacing" textLength="239.186" x="132.103" y="273.1045">Acknowledgement MCCI_IN000002UV01</text><!--SRC=[nP0zQyCm48Pt_GgHFU0uf4E6Wd5foP3KSN3Ne4fNvwWj2Kdk1_Z7z-J41LCesQBfJjpxw3cTK05_CoQycY_6h7019LgX0vyL8Y1GyG2jgPsm9vIUvqRxhWKtuuAQvzqLaKDdROENoA4g6ACSdz_7cg_7I0ar-k2- -IDgnNEX5IeHmFDz1tHRb4LstEpIPB5CLjLBaZ8X0txGn82Cg3aX8tdDhsIMu2sj0nFutG1NCC7tVJ-HVW8DJZGNJZQEdblwee2wexRQRmYRnBCaxEAcpeIIq8nsz9hHVmsFvwd_H3Fvhird0wg6DWfly_oNaGvRJaL-0000]--></g></svg>