<svg xmlns="http://www.w3.org/2000/svg" xmlns:xlink="http://www.w3.org/1999/xlink" contentStyleType="text/css" height="128px" preserveAspectRatio="none" style="width:347px;height:128px;background:#FFFFFF;" version="1.1" viewBox="0 0 347 128" width="347px" zoomAndPan="magnify"><defs/><g><rect fill="#FFFFFF" height="31.291" style="stroke:#181818;stroke-width:1.0;" width="10" x="271.1318" y="71.9121"/><line style="stroke:#181818;stroke-width:0.5;stroke-dasharray:5.0,5.0;" x1="76" x2="76" y1="38.6211" y2="121.2031"/><line style="stroke:#181818;stroke-width:0.5;stroke-dasharray:5.0,5.0;" x1="275.1597" x2="275.1597" y1="38.6211" y2="121.2031"/><rect fill="#E2E2F0" height="32.6211" rx="2.5" ry="2.5" style="stroke:#181818;stroke-width:0.5;" width="143.1787" x="5" y="5"/><text fill="#000000" font-family="sans-serif" font-size="14" lengthAdjust="spacing" textLength="129.1787" x="12" y="27.1074">Value Set Consumer</text><rect fill="#E2E2F0" height="32.6211" rx="2.5" ry="2.5" style="stroke:#181818;stroke-width:0.5;" width="129.9443" x="211.1597" y="5"/><text fill="#000000" font-family="sans-serif" font-size="14" lengthAdjust="spacing" textLength="115.9443" x="218.1597" y="27.1074">Value Set Registry</text><rect fill="#FFFFFF" height="31.291" style="stroke:#181818;stroke-width:1.0;" width="10" x="271.1318" y="71.9121"/><polygon fill="#181818" points="259.1318,67.9121,269.1318,71.9121,259.1318,75.9121,263.1318,71.9121" style="stroke:#181818;stroke-width:1.0;"/><line style="stroke:#181818;stroke-width:1.0;" x1="76.5894" x2="265.1318" y1="71.9121" y2="71.9121"/><text fill="#000000" font-family="sans-serif" font-size="13" lengthAdjust="spacing" textLength="160.4243" x="83.5894" y="66.6494">Retrieve Value Set Request</text><polygon fill="#181818" points="87.5894,99.2031,77.5894,103.2031,87.5894,107.2031,83.5894,103.2031" style="stroke:#181818;stroke-width:1.0;"/><line style="stroke:#181818;stroke-width:1.0;stroke-dasharray:2.0,2.0;" x1="81.5894" x2="275.1318" y1="103.2031" y2="103.2031"/><text fill="#000000" font-family="sans-serif" font-size="13" lengthAdjust="spacing" textLength="170.5425" x="93.5894" y="97.9404">Retrieve Value Set Response</text><!--SRC=[TSwn2i903CRnFKyHklS575oAk2bKS8_jfmQqTrvoHT_UkquwT0jy_n_ahYFu6e9VmfieId8TDChat9pbaS4dE7TXiln4QbYCk-DXhUjnK_FqMRf-joSgCRVRUlEcp9uKC_XNl3BCIGRNMHoBgdLRLCKhoc9v2JJY3z8N]--></g></svg>