<?xml version="1.0" encoding="us-ascii" standalone="no"?><svg xmlns="http://www.w3.org/2000/svg" xmlns:xlink="http://www.w3.org/1999/xlink" contentStyleType="text/css" height="128px" preserveAspectRatio="none" style="width:486px;height:128px;background:#FFFFFF;" version="1.1" viewBox="0 0 486 128" width="486px" zoomAndPan="magnify"><defs/><g><rect fill="#FFFFFF" height="31.291" style="stroke:#181818;stroke-width:1.0;" width="10" x="368.5" y="71.9121"/><line style="stroke:#181818;stroke-width:0.5;stroke-dasharray:5.0,5.0;" x1="106" x2="106" y1="38.6211" y2="121.2031"/><line style="stroke:#181818;stroke-width:0.5;stroke-dasharray:5.0,5.0;" x1="373.5" x2="373.5" y1="38.6211" y2="121.2031"/><rect fill="#E2E2F0" height="32.6211" rx="2.5" ry="2.5" style="stroke:#181818;stroke-width:0.5;" width="203" x="5" y="5"/><text fill="#000000" font-family="sans-serif" font-size="14" lengthAdjust="spacing" textLength="189" x="12" y="27.1074">Authorization Decision Verifier</text><rect fill="#E2E2F0" height="32.6211" rx="2.5" ry="2.5" style="stroke:#181818;stroke-width:0.5;" width="214" x="266.5" y="5"/><text fill="#000000" font-family="sans-serif" font-size="14" lengthAdjust="spacing" textLength="200" x="273.5" y="27.1074">Authorization Decision Manager</text><rect fill="#FFFFFF" height="31.291" style="stroke:#181818;stroke-width:1.0;" width="10" x="368.5" y="71.9121"/><polygon fill="#181818" points="356.5,67.9121,366.5,71.9121,356.5,75.9121,360.5,71.9121" style="stroke:#181818;stroke-width:1.0;"/><line style="stroke:#181818;stroke-width:1.0;" x1="106.5" x2="362.5" y1="71.9121" y2="71.9121"/><text fill="#000000" font-family="sans-serif" font-size="13" lengthAdjust="spacing" textLength="176" x="113.5" y="66.6494">Authorization Decisions Query</text><polygon fill="#181818" points="117.5,99.2031,107.5,103.2031,117.5,107.2031,113.5,103.2031" style="stroke:#181818;stroke-width:1.0;"/><line style="stroke:#181818;stroke-width:1.0;stroke-dasharray:2.0,2.0;" x1="111.5" x2="372.5" y1="103.2031" y2="103.2031"/><text fill="#000000" font-family="sans-serif" font-size="13" lengthAdjust="spacing" textLength="238" x="123.5" y="97.9404">Authorization Decisions Query Response</text><!--SRC=[ZSkn3i8m38JXtKznwjuNO412Oiq0GtQJkjHB4ZakWZuzGM9WG8BjVkc-HIV1N8fVofseihachPmTms7rfPXkx5eoZfAqlKOKqrd51d13_8i4pdnzYq0KCUuHTlZ-RZYjOW_Yv7fZbou2nYxY3u6pjDfBQ98F_0G0]--></g></svg>