<svg xmlns="http://www.w3.org/2000/svg" xmlns:xlink="http://www.w3.org/1999/xlink" contentStyleType="text/css" height="121px" preserveAspectRatio="none" style="width:436px;height:121px;background:#FFFFFF;" version="1.1" viewBox="0 0 436 121" width="436px" zoomAndPan="magnify"><defs/><g><rect fill="#FFFFFF" height="38.1328" style="stroke:#181818;stroke-width:1.0;" width="10" x="333.3862" y="67.4297"/><line style="stroke:#181818;stroke-width:0.5;stroke-dasharray:5.0,5.0;" x1="68" x2="68" y1="36.2969" y2="114.5625"/><line style="stroke:#181818;stroke-width:0.5;stroke-dasharray:5.0,5.0;" x1="337.4189" x2="337.4189" y1="36.2969" y2="114.5625"/><rect fill="#E2E2F0" height="30.2969" rx="2.5" ry="2.5" style="stroke:#181818;stroke-width:0.5;" width="126.5537" x="5" y="5"/><text fill="#000000" font-family="sans-serif" font-size="14" lengthAdjust="spacing" textLength="112.5537" x="12" y="24.9951">Audit Consumer</text><rect fill="#E2E2F0" height="30.2969" rx="2.5" ry="2.5" style="stroke:#181818;stroke-width:0.5;" width="183.9346" x="246.4189" y="5"/><text fill="#000000" font-family="sans-serif" font-size="14" lengthAdjust="spacing" textLength="169.9346" x="253.4189" y="24.9951">Audit Record Repository</text><rect fill="#FFFFFF" height="38.1328" style="stroke:#181818;stroke-width:1.0;" width="10" x="333.3862" y="67.4297"/><polygon fill="#181818" points="321.3862,63.4297,331.3862,67.4297,321.3862,71.4297,325.3862,67.4297" style="stroke:#181818;stroke-width:1.0;"/><line style="stroke:#181818;stroke-width:1.0;" x1="68.2769" x2="327.3862" y1="67.4297" y2="67.4297"/><text fill="#000000" font-family="sans-serif" font-size="13" lengthAdjust="spacing" textLength="180.7305" x="75.2769" y="62.3638">Retrieve ATNA Audit Events</text><polygon fill="#181818" points="79.2769,92.5625,69.2769,96.5625,79.2769,100.5625,75.2769,96.5625" style="stroke:#181818;stroke-width:1.0;"/><line style="stroke:#181818;stroke-width:1.0;stroke-dasharray:2.0,2.0;" x1="73.2769" x2="332.3862" y1="96.5625" y2="96.5625"/><text fill="#000000" font-family="sans-serif" font-size="13" lengthAdjust="spacing" textLength="241.1094" x="85.2769" y="91.4966">Retrieve ATNA Audit Event Response</text><!--SRC=[VOun2W8n44NxESMm_Lx0GWZ1rY9uWPYCE8MPC9aDUdiJjx0Hg__XlmV_pfdm9c9NUGBKgCQ9Qoo6Yzio6tefRNkGBXWRElyB2PH4yuWgZKtqjRCX03YFwt5MF8pTbAaJkilPuQwUEXLh49DnZqOVQTBhjFm_QIojZcy4cRwwXpS0]--></g></svg>