<svg xmlns="http://www.w3.org/2000/svg" xmlns:xlink="http://www.w3.org/1999/xlink" contentStyleType="text/css" height="121px" preserveAspectRatio="none" style="width:471px;height:121px;background:#FFFFFF;" version="1.1" viewBox="0 0 471 121" width="471px" zoomAndPan="magnify"><defs/><g><rect fill="#FFFFFF" height="29.1328" style="stroke:#181818;stroke-width:1.0;" width="10" x="342.772" y="67.4297"/><line style="stroke:#181818;stroke-width:0.5;stroke-dasharray:5.0,5.0;" x1="64" x2="64" y1="36.2969" y2="114.5625"/><line style="stroke:#181818;stroke-width:0.5;stroke-dasharray:5.0,5.0;" x1="347.2007" x2="347.2007" y1="36.2969" y2="114.5625"/><rect fill="#E2E2F0" height="30.2969" rx="2.5" ry="2.5" style="stroke:#181818;stroke-width:0.5;" width="119.7314" x="5" y="5"/><text fill="#000000" font-family="sans-serif" font-size="14" lengthAdjust="spacing" textLength="105.7314" x="12" y="24.9951">Querying Actor</text><rect fill="#E2E2F0" height="30.2969" rx="2.5" ry="2.5" style="stroke:#181818;stroke-width:0.5;" width="235.1426" x="230.2007" y="5"/><text fill="#000000" font-family="sans-serif" font-size="14" lengthAdjust="spacing" textLength="221.1426" x="237.2007" y="24.9951">Community Pharmacy Manager</text><rect fill="#FFFFFF" height="29.1328" style="stroke:#181818;stroke-width:1.0;" width="10" x="342.772" y="67.4297"/><polygon fill="#181818" points="330.772,63.4297,340.772,67.4297,330.772,71.4297,334.772,67.4297" style="stroke:#181818;stroke-width:1.0;"/><line style="stroke:#181818;stroke-width:1.0;" x1="64.8657" x2="336.772" y1="67.4297" y2="67.4297"/><text fill="#000000" font-family="sans-serif" font-size="13" lengthAdjust="spacing" textLength="186.7544" x="71.8657" y="62.3638">Query Pharmacy Documents</text><polygon fill="#181818" points="75.8657,92.5625,65.8657,96.5625,75.8657,100.5625,71.8657,96.5625" style="stroke:#181818;stroke-width:1.0;"/><line style="stroke:#181818;stroke-width:1.0;stroke-dasharray:2.0,2.0;" x1="69.8657" x2="346.772" y1="96.5625" y2="96.5625"/><text fill="#000000" font-family="sans-serif" font-size="13" lengthAdjust="spacing" textLength="253.9063" x="81.8657" y="91.4966">Query Pharmacy Documents Response</text><!--SRC=[TSmn3i8m38NXtQUmklS234XHMIirtC2afisGE4eSH6vFMmRKWUqD__TMFpC-HVGXRu14MRtpYQ9YPoldvkE2ngda3gcWDUTaa11gzDfmMYa7SWr7YhJmDn-c4S0QxA_xn0iUbx_s9gu6Zbg0dFeNAHzaR_lDRF8_mJkN9B4mp7pIy040]--></g></svg>